<svg width="1465" height="610" viewBox="0 0 1465 610" fill="none" xmlns="http://www.w3.org/2000/svg">
<rect width="1465" height="610" rx="50" fill="#DBAC2C"/>
<path d="M303.438 267.109H326.172C325.859 275.651 324.141 282.865 321.016 288.75C317.891 294.583 313.438 299.01 307.656 302.031C301.927 305.052 295 306.562 286.875 306.562C280.573 306.562 274.974 305.521 270.078 303.438C265.182 301.302 261.016 298.177 257.578 294.062C254.141 289.948 251.536 284.87 249.766 278.828C248.047 272.734 247.188 265.729 247.188 257.812V238.516C247.188 230.599 248.099 223.594 249.922 217.5C251.797 211.406 254.453 206.302 257.891 202.188C261.38 198.021 265.573 194.896 270.469 192.812C275.417 190.677 280.99 189.609 287.188 189.609C295.469 189.609 302.396 191.172 307.969 194.297C313.542 197.422 317.839 201.979 320.859 207.969C323.932 213.906 325.781 221.172 326.406 229.766H303.594C303.438 224.349 302.812 220.104 301.719 217.031C300.677 213.906 299.01 211.719 296.719 210.469C294.427 209.167 291.25 208.516 287.188 208.516C284.167 208.516 281.562 209.062 279.375 210.156C277.188 211.198 275.391 212.891 273.984 215.234C272.578 217.578 271.536 220.651 270.859 224.453C270.234 228.255 269.922 232.891 269.922 238.359V257.812C269.922 263.177 270.208 267.76 270.781 271.562C271.354 275.312 272.266 278.385 273.516 280.781C274.766 283.177 276.458 284.922 278.594 286.016C280.781 287.109 283.542 287.656 286.875 287.656C290.729 287.656 293.828 287.083 296.172 285.938C298.568 284.792 300.339 282.734 301.484 279.766C302.63 276.797 303.281 272.578 303.438 267.109ZM336.875 265.625V259.922C336.875 253.307 337.656 247.448 339.219 242.344C340.833 237.24 343.125 232.969 346.094 229.531C349.062 226.042 352.63 223.411 356.797 221.641C361.016 219.818 365.729 218.906 370.938 218.906C376.198 218.906 380.911 219.818 385.078 221.641C389.297 223.411 392.891 226.042 395.859 229.531C398.88 232.969 401.198 237.24 402.812 242.344C404.427 247.448 405.234 253.307 405.234 259.922V265.625C405.234 272.188 404.427 278.021 402.812 283.125C401.198 288.229 398.88 292.526 395.859 296.016C392.891 299.505 389.323 302.135 385.156 303.906C380.99 305.677 376.302 306.562 371.094 306.562C365.885 306.562 361.172 305.677 356.953 303.906C352.786 302.135 349.193 299.505 346.172 296.016C343.151 292.526 340.833 288.229 339.219 283.125C337.656 278.021 336.875 272.188 336.875 265.625ZM358.75 259.922V265.625C358.75 269.531 359.01 272.917 359.531 275.781C360.104 278.646 360.911 281.016 361.953 282.891C363.047 284.766 364.349 286.146 365.859 287.031C367.37 287.917 369.115 288.359 371.094 288.359C373.073 288.359 374.844 287.917 376.406 287.031C377.969 286.146 379.245 284.766 380.234 282.891C381.276 281.016 382.031 278.646 382.5 275.781C383.021 272.917 383.281 269.531 383.281 265.625V259.922C383.281 256.12 382.995 252.786 382.422 249.922C381.849 247.005 381.042 244.635 380 242.812C378.958 240.938 377.656 239.531 376.094 238.594C374.583 237.604 372.865 237.109 370.938 237.109C369.01 237.109 367.292 237.604 365.781 238.594C364.323 239.531 363.047 240.938 361.953 242.812C360.911 244.635 360.104 247.005 359.531 249.922C359.01 252.786 358.75 256.12 358.75 259.922ZM446.172 305H424.219V213.125C424.219 206.615 425.339 201.172 427.578 196.797C429.818 192.422 432.969 189.089 437.031 186.797C441.146 184.505 446.016 183.359 451.641 183.359C453.464 183.359 455.182 183.516 456.797 183.828C458.464 184.089 460.078 184.453 461.641 184.922L461.406 202.344C460.729 202.135 459.922 201.979 458.984 201.875C458.047 201.771 457.057 201.719 456.016 201.719C453.932 201.719 452.135 202.161 450.625 203.047C449.167 203.932 448.047 205.208 447.266 206.875C446.536 208.542 446.172 210.625 446.172 213.125V305ZM459.375 220.469V236.953H413.906V220.469H459.375ZM498.672 305H476.719V213.125C476.719 206.615 477.839 201.172 480.078 196.797C482.318 192.422 485.469 189.089 489.531 186.797C493.646 184.505 498.516 183.359 504.141 183.359C505.964 183.359 507.682 183.516 509.297 183.828C510.964 184.089 512.578 184.453 514.141 184.922L513.906 202.344C513.229 202.135 512.422 201.979 511.484 201.875C510.547 201.771 509.557 201.719 508.516 201.719C506.432 201.719 504.635 202.161 503.125 203.047C501.667 203.932 500.547 205.208 499.766 206.875C499.036 208.542 498.672 210.625 498.672 213.125V305ZM511.875 220.469V236.953H466.406V220.469H511.875ZM556.25 306.562C550.469 306.562 545.339 305.677 540.859 303.906C536.432 302.135 532.682 299.583 529.609 296.25C526.536 292.865 524.193 288.776 522.578 283.984C520.964 279.193 520.156 273.724 520.156 267.578V260.625C520.156 253.75 520.938 247.734 522.5 242.578C524.062 237.37 526.276 232.995 529.141 229.453C532.005 225.911 535.521 223.281 539.688 221.562C543.906 219.792 548.672 218.906 553.984 218.906C559.297 218.906 563.958 219.792 567.969 221.562C572.031 223.281 575.391 225.885 578.047 229.375C580.703 232.812 582.708 237.083 584.062 242.188C585.417 247.292 586.094 253.229 586.094 260V270H529.453V254.609H564.609V252.656C564.609 249.219 564.245 246.354 563.516 244.062C562.786 241.719 561.641 239.974 560.078 238.828C558.516 237.682 556.432 237.109 553.828 237.109C551.641 237.109 549.792 237.552 548.281 238.438C546.771 239.323 545.573 240.703 544.688 242.578C543.802 244.453 543.151 246.901 542.734 249.922C542.318 252.891 542.109 256.458 542.109 260.625V267.578C542.109 271.484 542.448 274.766 543.125 277.422C543.802 280.026 544.792 282.161 546.094 283.828C547.448 285.443 549.089 286.615 551.016 287.344C552.943 288.021 555.182 288.359 557.734 288.359C561.589 288.359 565.052 287.682 568.125 286.328C571.25 284.922 573.906 283.021 576.094 280.625L584.844 293.906C583.333 295.885 581.25 297.865 578.594 299.844C575.938 301.823 572.76 303.438 569.062 304.688C565.365 305.938 561.094 306.562 556.25 306.562ZM632.812 306.562C627.031 306.562 621.901 305.677 617.422 303.906C612.995 302.135 609.245 299.583 606.172 296.25C603.099 292.865 600.755 288.776 599.141 283.984C597.526 279.193 596.719 273.724 596.719 267.578V260.625C596.719 253.75 597.5 247.734 599.062 242.578C600.625 237.37 602.839 232.995 605.703 229.453C608.568 225.911 612.083 223.281 616.25 221.562C620.469 219.792 625.234 218.906 630.547 218.906C635.859 218.906 640.521 219.792 644.531 221.562C648.594 223.281 651.953 225.885 654.609 229.375C657.266 232.812 659.271 237.083 660.625 242.188C661.979 247.292 662.656 253.229 662.656 260V270H606.016V254.609H641.172V252.656C641.172 249.219 640.807 246.354 640.078 244.062C639.349 241.719 638.203 239.974 636.641 238.828C635.078 237.682 632.995 237.109 630.391 237.109C628.203 237.109 626.354 237.552 624.844 238.438C623.333 239.323 622.135 240.703 621.25 242.578C620.365 244.453 619.714 246.901 619.297 249.922C618.88 252.891 618.672 256.458 618.672 260.625V267.578C618.672 271.484 619.01 274.766 619.688 277.422C620.365 280.026 621.354 282.161 622.656 283.828C624.01 285.443 625.651 286.615 627.578 287.344C629.505 288.021 631.745 288.359 634.297 288.359C638.151 288.359 641.615 287.682 644.688 286.328C647.812 284.922 650.469 283.021 652.656 280.625L661.406 293.906C659.896 295.885 657.812 297.865 655.156 299.844C652.5 301.823 649.323 303.438 645.625 304.688C641.927 305.938 637.656 306.562 632.812 306.562ZM742.969 305H722.891L723.047 286.094H742.969C748.49 286.094 752.786 285.104 755.859 283.125C758.932 281.146 761.094 278.021 762.344 273.75C763.646 269.479 764.297 263.88 764.297 256.953V239.219C764.297 233.958 763.958 229.505 763.281 225.859C762.604 222.161 761.458 219.193 759.844 216.953C758.229 214.661 756.068 212.969 753.359 211.875C750.651 210.781 747.292 210.234 743.281 210.234H722.5V191.25H743.281C749.844 191.25 755.807 192.318 761.172 194.453C766.536 196.589 771.146 199.714 775 203.828C778.854 207.891 781.823 212.917 783.906 218.906C785.99 224.896 787.031 231.719 787.031 239.375V256.953C787.031 264.661 785.99 271.484 783.906 277.422C781.823 283.359 778.854 288.385 775 292.5C771.198 296.562 766.589 299.661 761.172 301.797C755.755 303.932 749.688 305 742.969 305ZM736.172 191.25V305H713.281V191.25H736.172ZM836.719 306.562C830.938 306.562 825.807 305.677 821.328 303.906C816.901 302.135 813.151 299.583 810.078 296.25C807.005 292.865 804.661 288.776 803.047 283.984C801.432 279.193 800.625 273.724 800.625 267.578V260.625C800.625 253.75 801.406 247.734 802.969 242.578C804.531 237.37 806.745 232.995 809.609 229.453C812.474 225.911 815.99 223.281 820.156 221.562C824.375 219.792 829.141 218.906 834.453 218.906C839.766 218.906 844.427 219.792 848.438 221.562C852.5 223.281 855.859 225.885 858.516 229.375C861.172 232.812 863.177 237.083 864.531 242.188C865.885 247.292 866.562 253.229 866.562 260V270H809.922V254.609H845.078V252.656C845.078 249.219 844.714 246.354 843.984 244.062C843.255 241.719 842.109 239.974 840.547 238.828C838.984 237.682 836.901 237.109 834.297 237.109C832.109 237.109 830.26 237.552 828.75 238.438C827.24 239.323 826.042 240.703 825.156 242.578C824.271 244.453 823.62 246.901 823.203 249.922C822.786 252.891 822.578 256.458 822.578 260.625V267.578C822.578 271.484 822.917 274.766 823.594 277.422C824.271 280.026 825.26 282.161 826.562 283.828C827.917 285.443 829.557 286.615 831.484 287.344C833.411 288.021 835.651 288.359 838.203 288.359C842.057 288.359 845.521 287.682 848.594 286.328C851.719 284.922 854.375 283.021 856.562 280.625L865.312 293.906C863.802 295.885 861.719 297.865 859.062 299.844C856.406 301.823 853.229 303.438 849.531 304.688C845.833 305.938 841.562 306.562 836.719 306.562ZM902.188 185V305H880.234V185H902.188ZM942.5 220.469V305H920.547V220.469H942.5ZM919.531 198.594C919.531 195.208 920.599 192.422 922.734 190.234C924.922 187.995 927.839 186.875 931.484 186.875C935.182 186.875 938.099 187.995 940.234 190.234C942.37 192.422 943.438 195.208 943.438 198.594C943.438 201.927 942.344 204.714 940.156 206.953C938.021 209.141 935.156 210.234 931.562 210.234C927.865 210.234 924.922 209.141 922.734 206.953C920.599 204.714 919.531 201.927 919.531 198.594ZM984.766 288.125L998.359 220.469H1021.17L997.969 305H984.297L984.766 288.125ZM976.719 220.469L990.547 288.203L990.781 305H977.031L953.828 220.469H976.719ZM1064.69 306.562C1058.91 306.562 1053.78 305.677 1049.3 303.906C1044.87 302.135 1041.12 299.583 1038.05 296.25C1034.97 292.865 1032.63 288.776 1031.02 283.984C1029.4 279.193 1028.59 273.724 1028.59 267.578V260.625C1028.59 253.75 1029.38 247.734 1030.94 242.578C1032.5 237.37 1034.71 232.995 1037.58 229.453C1040.44 225.911 1043.96 223.281 1048.12 221.562C1052.34 219.792 1057.11 218.906 1062.42 218.906C1067.73 218.906 1072.4 219.792 1076.41 221.562C1080.47 223.281 1083.83 225.885 1086.48 229.375C1089.14 232.812 1091.15 237.083 1092.5 242.188C1093.85 247.292 1094.53 253.229 1094.53 260V270H1037.89V254.609H1073.05V252.656C1073.05 249.219 1072.68 246.354 1071.95 244.062C1071.22 241.719 1070.08 239.974 1068.52 238.828C1066.95 237.682 1064.87 237.109 1062.27 237.109C1060.08 237.109 1058.23 237.552 1056.72 238.438C1055.21 239.323 1054.01 240.703 1053.12 242.578C1052.24 244.453 1051.59 246.901 1051.17 249.922C1050.76 252.891 1050.55 256.458 1050.55 260.625V267.578C1050.55 271.484 1050.89 274.766 1051.56 277.422C1052.24 280.026 1053.23 282.161 1054.53 283.828C1055.89 285.443 1057.53 286.615 1059.45 287.344C1061.38 288.021 1063.62 288.359 1066.17 288.359C1070.03 288.359 1073.49 287.682 1076.56 286.328C1079.69 284.922 1082.34 283.021 1084.53 280.625L1093.28 293.906C1091.77 295.885 1089.69 297.865 1087.03 299.844C1084.38 301.823 1081.2 303.438 1077.5 304.688C1073.8 305.938 1069.53 306.562 1064.69 306.562ZM1129.06 239.297V305H1107.19V220.469H1127.81L1129.06 239.297ZM1148.98 219.844L1148.67 241.641C1147.68 241.432 1146.48 241.276 1145.08 241.172C1143.72 241.068 1142.53 241.016 1141.48 241.016C1139.04 241.016 1136.95 241.406 1135.23 242.188C1133.52 242.917 1132.08 244.036 1130.94 245.547C1129.84 247.005 1129.01 248.828 1128.44 251.016C1127.86 253.203 1127.53 255.677 1127.42 258.438L1123.28 256.875C1123.28 251.354 1123.7 246.302 1124.53 241.719C1125.42 237.083 1126.72 233.073 1128.44 229.688C1130.16 226.25 1132.21 223.594 1134.61 221.719C1137.06 219.844 1139.82 218.906 1142.89 218.906C1143.93 218.906 1145.03 219.01 1146.17 219.219C1147.37 219.375 1148.31 219.583 1148.98 219.844ZM1182.81 295.312L1200.47 220.469H1223.28L1195.47 317.656C1194.84 319.792 1193.98 322.083 1192.89 324.531C1191.8 327.031 1190.34 329.375 1188.52 331.562C1186.74 333.802 1184.51 335.625 1181.8 337.031C1179.09 338.438 1175.83 339.141 1172.03 339.141C1170.1 339.141 1168.54 339.01 1167.34 338.75C1166.2 338.542 1164.74 338.177 1162.97 337.656V320.625C1163.44 320.625 1163.88 320.625 1164.3 320.625C1164.77 320.677 1165.21 320.703 1165.62 320.703C1168.07 320.703 1170.03 320.365 1171.48 319.688C1172.94 319.062 1174.11 318.073 1175 316.719C1175.94 315.365 1176.72 313.672 1177.34 311.641L1182.81 295.312ZM1178.28 220.469L1191.41 281.094L1194.38 305.781L1179.61 307.188L1154.84 220.469H1178.28Z" fill="white"/>
<path d="M261.992 430H250.117L250.195 423.867H261.992C266.055 423.867 269.44 423.021 272.148 421.328C274.857 419.609 276.888 417.214 278.242 414.141C279.622 411.042 280.312 407.422 280.312 403.281V399.805C280.312 396.549 279.922 393.659 279.141 391.133C278.359 388.581 277.214 386.432 275.703 384.688C274.193 382.917 272.344 381.576 270.156 380.664C267.995 379.753 265.508 379.297 262.695 379.297H249.883V373.125H262.695C266.419 373.125 269.818 373.75 272.891 375C275.964 376.224 278.607 378.008 280.82 380.352C283.06 382.669 284.779 385.482 285.977 388.789C287.174 392.07 287.773 395.768 287.773 399.883V403.281C287.773 407.396 287.174 411.107 285.977 414.414C284.779 417.695 283.047 420.495 280.781 422.812C278.542 425.13 275.833 426.914 272.656 428.164C269.505 429.388 265.951 430 261.992 430ZM254.141 373.125V430H246.602V373.125H254.141ZM315.547 430.781C312.604 430.781 309.935 430.286 307.539 429.297C305.169 428.281 303.125 426.862 301.406 425.039C299.714 423.216 298.411 421.055 297.5 418.555C296.589 416.055 296.133 413.32 296.133 410.352V408.711C296.133 405.273 296.641 402.214 297.656 399.531C298.672 396.823 300.052 394.531 301.797 392.656C303.542 390.781 305.521 389.362 307.734 388.398C309.948 387.435 312.24 386.953 314.609 386.953C317.63 386.953 320.234 387.474 322.422 388.516C324.635 389.557 326.445 391.016 327.852 392.891C329.258 394.74 330.299 396.927 330.977 399.453C331.654 401.953 331.992 404.688 331.992 407.656V410.898H300.43V405H324.766V404.453C324.661 402.578 324.271 400.755 323.594 398.984C322.943 397.214 321.901 395.755 320.469 394.609C319.036 393.464 317.083 392.891 314.609 392.891C312.969 392.891 311.458 393.242 310.078 393.945C308.698 394.622 307.513 395.638 306.523 396.992C305.534 398.346 304.766 400 304.219 401.953C303.672 403.906 303.398 406.159 303.398 408.711V410.352C303.398 412.357 303.672 414.245 304.219 416.016C304.792 417.76 305.612 419.297 306.68 420.625C307.773 421.953 309.089 422.995 310.625 423.75C312.188 424.505 313.958 424.883 315.938 424.883C318.49 424.883 320.651 424.362 322.422 423.32C324.193 422.279 325.742 420.885 327.07 419.141L331.445 422.617C330.534 423.997 329.375 425.312 327.969 426.562C326.562 427.812 324.831 428.828 322.773 429.609C320.742 430.391 318.333 430.781 315.547 430.781ZM365.039 418.789C365.039 417.747 364.805 416.784 364.336 415.898C363.893 414.987 362.969 414.167 361.562 413.438C360.182 412.682 358.099 412.031 355.312 411.484C352.969 410.99 350.846 410.404 348.945 409.727C347.07 409.049 345.469 408.229 344.141 407.266C342.839 406.302 341.836 405.169 341.133 403.867C340.43 402.565 340.078 401.042 340.078 399.297C340.078 397.63 340.443 396.055 341.172 394.57C341.927 393.086 342.982 391.771 344.336 390.625C345.716 389.479 347.37 388.581 349.297 387.93C351.224 387.279 353.372 386.953 355.742 386.953C359.128 386.953 362.018 387.552 364.414 388.75C366.81 389.948 368.646 391.549 369.922 393.555C371.198 395.534 371.836 397.734 371.836 400.156H364.609C364.609 398.984 364.258 397.852 363.555 396.758C362.878 395.638 361.875 394.714 360.547 393.984C359.245 393.255 357.643 392.891 355.742 392.891C353.737 392.891 352.109 393.203 350.859 393.828C349.635 394.427 348.737 395.195 348.164 396.133C347.617 397.07 347.344 398.06 347.344 399.102C347.344 399.883 347.474 400.586 347.734 401.211C348.021 401.81 348.516 402.37 349.219 402.891C349.922 403.385 350.911 403.854 352.188 404.297C353.464 404.74 355.091 405.182 357.07 405.625C360.534 406.406 363.385 407.344 365.625 408.438C367.865 409.531 369.531 410.872 370.625 412.461C371.719 414.049 372.266 415.977 372.266 418.242C372.266 420.091 371.875 421.784 371.094 423.32C370.339 424.857 369.232 426.185 367.773 427.305C366.341 428.398 364.622 429.258 362.617 429.883C360.638 430.482 358.411 430.781 355.938 430.781C352.214 430.781 349.062 430.117 346.484 428.789C343.906 427.461 341.953 425.742 340.625 423.633C339.297 421.523 338.633 419.297 338.633 416.953H345.898C346.003 418.932 346.576 420.508 347.617 421.68C348.659 422.826 349.935 423.646 351.445 424.141C352.956 424.609 354.453 424.844 355.938 424.844C357.917 424.844 359.57 424.583 360.898 424.062C362.253 423.542 363.281 422.826 363.984 421.914C364.688 421.003 365.039 419.961 365.039 418.789ZM406.68 422.773V401.016C406.68 399.349 406.341 397.904 405.664 396.68C405.013 395.43 404.023 394.466 402.695 393.789C401.367 393.112 399.727 392.773 397.773 392.773C395.951 392.773 394.349 393.086 392.969 393.711C391.615 394.336 390.547 395.156 389.766 396.172C389.01 397.188 388.633 398.281 388.633 399.453H381.406C381.406 397.943 381.797 396.445 382.578 394.961C383.359 393.477 384.479 392.135 385.938 390.938C387.422 389.714 389.193 388.75 391.25 388.047C393.333 387.318 395.651 386.953 398.203 386.953C401.276 386.953 403.984 387.474 406.328 388.516C408.698 389.557 410.547 391.133 411.875 393.242C413.229 395.326 413.906 397.943 413.906 401.094V420.781C413.906 422.188 414.023 423.685 414.258 425.273C414.518 426.862 414.896 428.229 415.391 429.375V430H407.852C407.487 429.167 407.201 428.06 406.992 426.68C406.784 425.273 406.68 423.971 406.68 422.773ZM407.93 404.375L408.008 409.453H400.703C398.646 409.453 396.81 409.622 395.195 409.961C393.581 410.273 392.227 410.755 391.133 411.406C390.039 412.057 389.206 412.878 388.633 413.867C388.06 414.831 387.773 415.964 387.773 417.266C387.773 418.594 388.073 419.805 388.672 420.898C389.271 421.992 390.169 422.865 391.367 423.516C392.591 424.141 394.089 424.453 395.859 424.453C398.073 424.453 400.026 423.984 401.719 423.047C403.411 422.109 404.753 420.964 405.742 419.609C406.758 418.255 407.305 416.94 407.383 415.664L410.469 419.141C410.286 420.234 409.792 421.445 408.984 422.773C408.177 424.102 407.096 425.378 405.742 426.602C404.414 427.799 402.826 428.802 400.977 429.609C399.154 430.391 397.096 430.781 394.805 430.781C391.94 430.781 389.427 430.221 387.266 429.102C385.13 427.982 383.464 426.484 382.266 424.609C381.094 422.708 380.508 420.586 380.508 418.242C380.508 415.977 380.951 413.984 381.836 412.266C382.721 410.521 383.997 409.076 385.664 407.93C387.331 406.758 389.336 405.872 391.68 405.273C394.023 404.674 396.641 404.375 399.531 404.375H407.93ZM434.922 430H427.695V384.062C427.695 380.859 428.32 378.151 429.57 375.938C430.82 373.724 432.604 372.044 434.922 370.898C437.24 369.753 439.987 369.18 443.164 369.18C445.039 369.18 446.875 369.414 448.672 369.883C450.469 370.326 452.318 370.885 454.219 371.562L453.008 377.656C451.81 377.188 450.417 376.745 448.828 376.328C447.266 375.885 445.547 375.664 443.672 375.664C440.573 375.664 438.333 376.367 436.953 377.773C435.599 379.154 434.922 381.25 434.922 384.062V430ZM443.555 387.734V393.281H421.016V387.734H443.555ZM457.773 387.734V430H450.547V387.734H457.773ZM467.734 409.336V408.438C467.734 405.391 468.177 402.565 469.062 399.961C469.948 397.331 471.224 395.052 472.891 393.125C474.557 391.172 476.576 389.661 478.945 388.594C481.315 387.5 483.971 386.953 486.914 386.953C489.883 386.953 492.552 387.5 494.922 388.594C497.318 389.661 499.349 391.172 501.016 393.125C502.708 395.052 503.997 397.331 504.883 399.961C505.768 402.565 506.211 405.391 506.211 408.438V409.336C506.211 412.383 505.768 415.208 504.883 417.812C503.997 420.417 502.708 422.695 501.016 424.648C499.349 426.576 497.331 428.086 494.961 429.18C492.617 430.247 489.961 430.781 486.992 430.781C484.023 430.781 481.354 430.247 478.984 429.18C476.615 428.086 474.583 426.576 472.891 424.648C471.224 422.695 469.948 420.417 469.062 417.812C468.177 415.208 467.734 412.383 467.734 409.336ZM474.961 408.438V409.336C474.961 411.445 475.208 413.438 475.703 415.312C476.198 417.161 476.94 418.802 477.93 420.234C478.945 421.667 480.208 422.799 481.719 423.633C483.229 424.44 484.987 424.844 486.992 424.844C488.971 424.844 490.703 424.44 492.188 423.633C493.698 422.799 494.948 421.667 495.938 420.234C496.927 418.802 497.669 417.161 498.164 415.312C498.685 413.438 498.945 411.445 498.945 409.336V408.438C498.945 406.354 498.685 404.388 498.164 402.539C497.669 400.664 496.914 399.01 495.898 397.578C494.909 396.12 493.659 394.974 492.148 394.141C490.664 393.307 488.919 392.891 486.914 392.891C484.935 392.891 483.19 393.307 481.68 394.141C480.195 394.974 478.945 396.12 477.93 397.578C476.94 399.01 476.198 400.664 475.703 402.539C475.208 404.388 474.961 406.354 474.961 408.438ZM544.297 373.125V430H536.758V373.125H544.297ZM584.297 387.734H590.859V429.102C590.859 432.826 590.104 436.003 588.594 438.633C587.083 441.263 584.974 443.255 582.266 444.609C579.583 445.99 576.484 446.68 572.969 446.68C571.51 446.68 569.792 446.445 567.812 445.977C565.859 445.534 563.932 444.766 562.031 443.672C560.156 442.604 558.581 441.159 557.305 439.336L561.094 435.039C562.865 437.174 564.714 438.659 566.641 439.492C568.594 440.326 570.521 440.742 572.422 440.742C574.714 440.742 576.693 440.312 578.359 439.453C580.026 438.594 581.315 437.318 582.227 435.625C583.164 433.958 583.633 431.901 583.633 429.453V397.031L584.297 387.734ZM555.195 409.336V408.516C555.195 405.286 555.573 402.357 556.328 399.727C557.109 397.07 558.216 394.792 559.648 392.891C561.107 390.99 562.865 389.531 564.922 388.516C566.979 387.474 569.297 386.953 571.875 386.953C574.531 386.953 576.849 387.422 578.828 388.359C580.833 389.271 582.526 390.612 583.906 392.383C585.312 394.128 586.419 396.237 587.227 398.711C588.034 401.185 588.594 403.984 588.906 407.109V410.703C588.62 413.802 588.06 416.589 587.227 419.062C586.419 421.536 585.312 423.646 583.906 425.391C582.526 427.135 580.833 428.477 578.828 429.414C576.823 430.326 574.479 430.781 571.797 430.781C569.271 430.781 566.979 430.247 564.922 429.18C562.891 428.112 561.146 426.615 559.688 424.688C558.229 422.76 557.109 420.495 556.328 417.891C555.573 415.26 555.195 412.409 555.195 409.336ZM562.422 408.516V409.336C562.422 411.445 562.63 413.424 563.047 415.273C563.49 417.122 564.154 418.75 565.039 420.156C565.951 421.562 567.109 422.669 568.516 423.477C569.922 424.258 571.602 424.648 573.555 424.648C575.951 424.648 577.93 424.141 579.492 423.125C581.055 422.109 582.292 420.768 583.203 419.102C584.141 417.435 584.87 415.625 585.391 413.672V404.258C585.104 402.826 584.661 401.445 584.062 400.117C583.49 398.763 582.734 397.565 581.797 396.523C580.885 395.456 579.753 394.609 578.398 393.984C577.044 393.359 575.456 393.047 573.633 393.047C571.654 393.047 569.948 393.464 568.516 394.297C567.109 395.104 565.951 396.224 565.039 397.656C564.154 399.062 563.49 400.703 563.047 402.578C562.63 404.427 562.422 406.406 562.422 408.516ZM609.062 396.758V430H601.836V387.734H608.672L609.062 396.758ZM607.344 407.266L604.336 407.148C604.362 404.258 604.792 401.589 605.625 399.141C606.458 396.667 607.63 394.518 609.141 392.695C610.651 390.872 612.448 389.466 614.531 388.477C616.641 387.461 618.971 386.953 621.523 386.953C623.607 386.953 625.482 387.24 627.148 387.812C628.815 388.359 630.234 389.245 631.406 390.469C632.604 391.693 633.516 393.281 634.141 395.234C634.766 397.161 635.078 399.518 635.078 402.305V430H627.812V402.227C627.812 400.013 627.487 398.242 626.836 396.914C626.185 395.56 625.234 394.583 623.984 393.984C622.734 393.359 621.198 393.047 619.375 393.047C617.578 393.047 615.938 393.424 614.453 394.18C612.995 394.935 611.732 395.977 610.664 397.305C609.622 398.633 608.802 400.156 608.203 401.875C607.63 403.568 607.344 405.365 607.344 407.266ZM653.906 387.734V430H646.641V387.734H653.906ZM646.094 376.523C646.094 375.352 646.445 374.362 647.148 373.555C647.878 372.747 648.945 372.344 650.352 372.344C651.732 372.344 652.786 372.747 653.516 373.555C654.271 374.362 654.648 375.352 654.648 376.523C654.648 377.643 654.271 378.607 653.516 379.414C652.786 380.195 651.732 380.586 650.352 380.586C648.945 380.586 647.878 380.195 647.148 379.414C646.445 378.607 646.094 377.643 646.094 376.523ZM683.203 387.734V393.281H660.352V387.734H683.203ZM668.086 377.461H675.312V419.531C675.312 420.964 675.534 422.044 675.977 422.773C676.419 423.503 676.992 423.984 677.695 424.219C678.398 424.453 679.154 424.57 679.961 424.57C680.56 424.57 681.185 424.518 681.836 424.414C682.513 424.284 683.021 424.18 683.359 424.102L683.398 430C682.826 430.182 682.07 430.352 681.133 430.508C680.221 430.69 679.115 430.781 677.812 430.781C676.042 430.781 674.414 430.43 672.93 429.727C671.445 429.023 670.26 427.852 669.375 426.211C668.516 424.544 668.086 422.305 668.086 419.492V377.461ZM709.219 430.781C706.276 430.781 703.607 430.286 701.211 429.297C698.841 428.281 696.797 426.862 695.078 425.039C693.385 423.216 692.083 421.055 691.172 418.555C690.26 416.055 689.805 413.32 689.805 410.352V408.711C689.805 405.273 690.312 402.214 691.328 399.531C692.344 396.823 693.724 394.531 695.469 392.656C697.214 390.781 699.193 389.362 701.406 388.398C703.62 387.435 705.911 386.953 708.281 386.953C711.302 386.953 713.906 387.474 716.094 388.516C718.307 389.557 720.117 391.016 721.523 392.891C722.93 394.74 723.971 396.927 724.648 399.453C725.326 401.953 725.664 404.688 725.664 407.656V410.898H694.102V405H718.438V404.453C718.333 402.578 717.943 400.755 717.266 398.984C716.615 397.214 715.573 395.755 714.141 394.609C712.708 393.464 710.755 392.891 708.281 392.891C706.641 392.891 705.13 393.242 703.75 393.945C702.37 394.622 701.185 395.638 700.195 396.992C699.206 398.346 698.438 400 697.891 401.953C697.344 403.906 697.07 406.159 697.07 408.711V410.352C697.07 412.357 697.344 414.245 697.891 416.016C698.464 417.76 699.284 419.297 700.352 420.625C701.445 421.953 702.76 422.995 704.297 423.75C705.859 424.505 707.63 424.883 709.609 424.883C712.161 424.883 714.323 424.362 716.094 423.32C717.865 422.279 719.414 420.885 720.742 419.141L725.117 422.617C724.206 423.997 723.047 425.312 721.641 426.562C720.234 427.812 718.503 428.828 716.445 429.609C714.414 430.391 712.005 430.781 709.219 430.781Z" fill="white"/>
</svg>
