<svg width="323" height="290" viewBox="0 0 323 290" fill="none" xmlns="http://www.w3.org/2000/svg">
<path d="M224.566 15.168C187.736 -9.10323 135.98 -4.19825 103.422 31.828C85.6199 51.5325 78.3892 78.6367 59.911 97.9184C39.1071 119.653 14.2439 140.752 4.81451 170.351C-5.20687 201.811 3.58827 237.879 25.999 261.939C53.2723 291.2 93.3579 282.405 131.245 281.94C286.386 279.995 401.695 176.44 254.969 48.784C242.706 38.0438 236.744 23.1597 224.566 15.168Z" fill="#EBC136"/>
<path d="M94.4149 37.1559L86.8037 57.2409H229.809L222.198 37.1559C222.198 37.1559 154.755 33.4771 94.4149 37.1559Z" fill="#3D3A3A"/>
<path d="M209.555 284.773L239.873 61.427H76.7402L107.058 284.773C107.058 284.773 169.216 293.822 209.555 284.773Z" fill="#F2F0F0"/>
<path d="M74.8374 48.8263H241.776V64.8098H74.8374V48.8263ZM220.761 208.45H95.8527L84.5205 121.259H232.093L220.761 208.45Z" fill="#3D3A3A"/>
<path d="M141.236 147.795C140.938 147.335 140.503 147.322 140.007 147.307C139.951 147.305 139.894 147.304 139.837 147.301C139.793 147.299 139.744 147.3 139.694 147.301C139.493 147.304 139.257 147.308 139.139 147.138C139.002 146.94 139.015 146.559 139.025 146.244C139.029 146.145 139.032 146.052 139.03 145.974C139.011 145.243 138.971 144.466 138.69 144.206C138.479 144.011 137.847 144.038 137.264 144.063C137.075 144.071 136.891 144.079 136.729 144.079H124.322C124.072 144.079 123.81 144.059 123.553 144.039C123.051 143.999 122.567 143.961 122.224 144.079C121.725 144.251 121.691 145.153 121.659 146.003L121.658 146.049C121.631 146.75 121.458 147.291 120.887 147.237C120.221 147.174 119.56 147.155 119.259 147.761C118.904 148.478 118.977 149.23 119.108 150.575C119.127 150.767 119.147 150.971 119.167 151.189H141.428C141.44 151.03 141.454 150.873 141.467 150.718C141.571 149.508 141.662 148.453 141.236 147.795Z" fill="#7C7C7D"/>
<path fill-rule="evenodd" clip-rule="evenodd" d="M120.9 152.524C121.248 157.264 121.592 162.01 121.936 166.756L121.936 166.759C122.123 169.336 122.31 171.912 122.497 174.489H123.207C123.256 174.892 123.311 175.39 123.369 175.914C123.488 176.98 123.619 178.157 123.729 178.88H123.807C124.531 178.613 129.532 176.46 129.535 167.885C129.534 167.861 129.535 167.836 129.537 167.812H128.301C128.242 167.811 128.184 167.791 128.136 167.755C128.089 167.718 128.055 167.667 128.04 167.61C127.92 167.31 127.823 167.001 127.75 166.687C127.023 167.101 126.445 167.732 126.1 168.492C125.772 167.714 125.729 166.846 125.979 166.04C126.228 165.234 126.754 164.54 127.465 164.081C127.474 161.579 128.404 159.167 130.079 157.302L130.105 157.279C130.154 157.236 130.216 157.213 130.28 157.212C130.318 157.212 130.355 157.221 130.389 157.236C130.423 157.251 130.454 157.274 130.48 157.302C132.174 159.17 133.099 161.605 133.07 164.122C133.794 164.568 134.331 165.261 134.581 166.071C134.83 166.882 134.777 167.755 134.429 168.529C134.086 167.769 133.508 167.136 132.78 166.725C132.735 167.029 132.653 167.328 132.536 167.612C132.495 167.734 132.414 167.812 132.332 167.812H131.015C131.017 167.827 131.018 167.841 131.019 167.856L131.019 167.859V167.866C131.02 167.879 131.02 167.892 131.019 167.904C131.038 176.725 136.355 178.727 136.803 178.88H136.957C136.996 178.185 137.123 177.227 137.248 176.292C137.333 175.648 137.417 175.015 137.47 174.489H138.188C138.418 171.244 138.655 168.008 138.891 164.772L138.892 164.77L138.892 164.769C139.194 160.631 139.497 156.491 139.786 152.333H120.946C120.892 152.344 120.896 152.433 120.9 152.524ZM130.28 157.212L130.279 157.212H130.282L130.28 157.212Z" fill="#7C7C7D"/>
<path d="M147.747 149.271C147.747 148.101 148.147 147.194 148.947 146.55C149.762 145.892 150.984 145.563 152.614 145.563C153.691 145.563 154.608 145.665 155.364 145.87V148.898C154.549 148.649 153.742 148.525 152.941 148.525C152.156 148.525 151.646 148.62 151.414 148.81C151.181 148.986 151.064 149.249 151.064 149.6V156.972C151.064 157.674 151.61 158.025 152.701 158.025C153.807 158.025 154.717 157.916 155.43 157.696V160.658C154.644 160.878 153.691 160.987 152.57 160.987C150.941 160.987 149.726 160.665 148.925 160.022C148.14 159.378 147.747 158.471 147.747 157.301V149.271Z" fill="#7C7C7D"/>
<path d="M161.805 151.355C161.805 150.799 161.5 150.521 160.889 150.521C160.278 150.521 159.972 150.799 159.972 151.355V157.455C159.972 158.011 160.278 158.288 160.889 158.288C161.5 158.288 161.805 158.011 161.805 157.455V151.355ZM156.742 151.246C156.742 150.134 157.084 149.271 157.768 148.657C158.466 148.028 159.506 147.713 160.889 147.713C162.271 147.713 163.304 148.028 163.988 148.657C164.687 149.271 165.036 150.134 165.036 151.246V157.564C165.036 158.676 164.687 159.546 163.988 160.175C163.304 160.79 162.271 161.097 160.889 161.097C159.506 161.097 158.466 160.79 157.768 160.175C157.084 159.546 156.742 158.676 156.742 157.564V151.246Z" fill="#7C7C7D"/>
<path d="M167.157 147.779C167.157 145.307 168.452 144.071 171.042 144.071C171.377 144.071 171.777 144.107 172.243 144.181V146.726C172.01 146.696 171.792 146.682 171.588 146.682C170.846 146.682 170.475 147.033 170.475 147.735V147.932H172.243V150.521H170.475V160.878H167.157V150.521H165.913V147.932H167.157V147.779Z" fill="#7C7C7D"/>
<path d="M173.594 147.779C173.594 145.307 174.889 144.071 177.48 144.071C177.814 144.071 178.214 144.107 178.68 144.181V146.726C178.447 146.696 178.229 146.682 178.025 146.682C177.283 146.682 176.912 147.033 176.912 147.735V147.932H178.68V150.521H176.912V160.878H173.594V150.521H172.35V147.932H173.594V147.779Z" fill="#7C7C7D"/>
<path d="M179.442 157.191V151.246C179.442 150.134 179.784 149.271 180.468 148.657C181.152 148.028 182.185 147.713 183.567 147.713C186.23 147.713 187.562 148.891 187.562 151.246V155.699H182.607V156.928C182.607 157.367 182.723 157.681 182.956 157.872C183.204 158.047 183.735 158.135 184.55 158.135C185.379 158.135 186.281 157.989 187.256 157.696V160.592C186.238 160.87 185.146 161.009 183.982 161.009C180.956 161.009 179.442 159.737 179.442 157.191ZM182.607 153.176H184.528V151.289C184.528 150.734 184.208 150.456 183.567 150.456C182.927 150.456 182.607 150.734 182.607 151.289V153.176Z" fill="#7C7C7D"/>
<path d="M188.863 157.191V151.246C188.863 150.134 189.205 149.271 189.889 148.657C190.573 148.028 191.606 147.713 192.989 147.713C195.652 147.713 196.983 148.891 196.983 151.246V155.699H192.028V156.928C192.028 157.367 192.145 157.681 192.378 157.872C192.625 158.047 193.156 158.135 193.971 158.135C194.8 158.135 195.702 157.989 196.677 157.696V160.592C195.659 160.87 194.567 161.009 193.403 161.009C190.377 161.009 188.863 159.737 188.863 157.191ZM192.028 153.176H193.949V151.289C193.949 150.734 193.629 150.456 192.989 150.456C192.348 150.456 192.028 150.734 192.028 151.289V153.176Z" fill="#7C7C7D"/>
<path d="M153 168.956C153 167.876 152.433 167.336 151.299 167.336H149.49V177.183H151.299C152.433 177.183 153 176.631 153 175.527V168.956ZM148.219 166.22H151.371C152.326 166.22 153.048 166.466 153.538 166.958C154.027 167.45 154.272 168.11 154.272 168.938V175.563C154.272 176.415 154.033 177.087 153.555 177.579C153.078 178.072 152.361 178.318 151.406 178.318H148.219V166.22Z" fill="#7C7C7D"/>
<path d="M156.364 175.707V170.702C156.364 169.85 156.603 169.172 157.081 168.668C157.57 168.152 158.304 167.894 159.284 167.894C160.263 167.894 160.985 168.152 161.45 168.668C161.928 169.172 162.167 169.85 162.167 170.702V173.835H157.618V175.653C157.618 176.193 157.785 176.595 158.119 176.859C158.454 177.123 158.973 177.255 159.677 177.255C160.382 177.255 161.11 177.147 161.862 176.931V178.12C161.265 178.312 160.555 178.408 159.731 178.408C157.487 178.408 156.364 177.507 156.364 175.707ZM157.618 172.773H160.949V170.702C160.949 169.574 160.394 169.01 159.284 169.01C158.173 169.01 157.618 169.574 157.618 170.702V172.773Z" fill="#7C7C7D"/>
<path d="M164.344 165.356H165.615V178.318H164.344V165.356Z" fill="#7C7C7D"/>
<path d="M168.713 166.922C168.2 166.922 167.943 166.646 167.943 166.094C167.943 165.542 168.2 165.266 168.713 165.266C169.238 165.266 169.501 165.542 169.501 166.094C169.501 166.646 169.238 166.922 168.713 166.922ZM168.086 168.146H169.358V178.318H168.086V168.146Z" fill="#7C7C7D"/>
<path d="M175.912 168.074H177.202L174.945 178.318H173.154L170.898 168.074H172.205L173.19 172.773L174.068 177.417C174.426 175.425 175.041 172.311 175.912 168.074Z" fill="#7C7C7D"/>
<path d="M178.558 175.707V170.702C178.558 169.85 178.797 169.172 179.275 168.668C179.764 168.152 180.498 167.894 181.477 167.894C182.456 167.894 183.179 168.152 183.644 168.668C184.122 169.172 184.361 169.85 184.361 170.702V173.835H179.812V175.653C179.812 176.193 179.979 176.595 180.313 176.859C180.648 177.123 181.167 177.255 181.871 177.255C182.576 177.255 183.304 177.147 184.056 176.931V178.12C183.459 178.312 182.749 178.408 181.925 178.408C179.681 178.408 178.558 177.507 178.558 175.707ZM179.812 172.773H183.143V170.702C183.143 169.574 182.588 169.01 181.477 169.01C180.367 169.01 179.812 169.574 179.812 170.702V172.773Z" fill="#7C7C7D"/>
<path d="M189.833 168.02H190.28V169.244H189.672C189.242 169.244 188.854 169.358 188.507 169.586C188.4 169.658 188.167 169.82 187.809 170.072V178.318H186.538V168.074H187.755V168.848C187.791 168.824 187.881 168.758 188.024 168.65C188.179 168.542 188.269 168.482 188.293 168.47C188.328 168.446 188.406 168.398 188.525 168.326C188.657 168.254 188.752 168.212 188.812 168.2C188.884 168.176 188.979 168.146 189.098 168.11C189.278 168.05 189.522 168.02 189.833 168.02Z" fill="#7C7C7D"/>
<path d="M195.728 168.074H197L194.206 181H192.988L193.544 178.318H192.917L190.696 168.074H191.985L193.06 173.169L193.848 177.417C194.087 176.001 194.349 174.585 194.636 173.169L195.728 168.074Z" fill="#7C7C7D"/>
<path opacity="0.17" d="M210.866 278.853L210.02 285.069C210.02 285.069 147.862 294.118 107.523 285.069L100.292 231.748C122.365 263.673 159.195 279.36 210.866 278.853Z" fill="#CCC6C6"/>
<path d="M36.4008 136.905C36.4008 136.905 36.5699 135.34 36.9505 133.014C37.3311 130.731 40.1218 127.264 40.1218 127.264C37.7962 127.095 35.8934 130.9 35.8934 130.9L35.682 132.592L31.0307 129.589C31.0307 129.589 27.056 126.672 26.2948 126.418C25.576 126.164 22.2778 137.497 22.2778 137.497L34.3712 146.545L39.5298 139.907L36.4008 136.905V136.905Z" fill="#FCBAA2"/>
<path d="M23.8423 126.46L25.9565 143.289L34.3711 143.501L36.4007 126.46H23.8423Z" fill="#D8D8D8"/>
<path d="M24.5 131H35.8543L34.9999 139H25.4158L24.5 131Z" fill="#3D3A3A"/>
<path d="M22.0244 126.672H37.881V125.023H36.4011V122.401L23.5044 124.304L23.4621 125.234H22.0244V126.883" fill="#3D3A3A"/>
<path d="M23.0812 137.877C20.1636 138.173 23.8 130.097 23.8 130.097C23.8 130.097 31.7072 129.547 31.7917 129.97C31.8763 130.393 31.834 131.154 31.1998 131.281C30.5655 131.45 25.6182 132.084 25.6182 132.084C25.6182 132.084 30.7769 132.338 30.6924 132.888C30.5232 133.733 29.9312 133.776 28.409 134.029C27.0982 134.241 24.2229 134.325 24.2229 134.325C24.2229 134.325 29.6775 134.452 29.5507 134.79C29.4238 135.129 29.8044 136.27 27.9439 135.974C23.7154 135.425 23.0812 137.877 23.0812 137.877V137.877Z" fill="#FCBAA2"/>
<path d="M58.7695 170.225C58.7695 170.225 50.6932 227.139 54.4565 239.19C58.1775 251.284 59.6152 262.193 59.6152 262.193L78.3049 256.738C78.3049 256.738 72.0891 228.281 71.2011 222.784C70.2708 217.329 79.8694 172.889 79.8694 172.889L58.7695 170.225V170.225Z" fill="#3E322C"/>
<path d="M67.6069 174.326L76.4444 265.787H94.2883C94.2883 265.787 88.5377 168.998 89.5525 168.195C90.6096 167.392 67.6069 174.326 67.6069 174.326Z" fill="#3E322C"/>
<path d="M60.5451 118.595C60.5451 118.595 58.6423 149.252 54.5407 148.152C50.4391 147.053 39.4029 139.061 39.4029 139.061L32.6797 146.419C32.6797 146.419 53.103 169.168 61.5176 159.823C69.9322 150.562 60.5451 118.595 60.5451 118.595V118.595Z" fill="#E25333"/>
<path d="M66.0844 281.052L64.8582 274.878L77.924 269.677L79.996 278.895L79.2771 279.022C76.3595 280.375 62.1097 286.972 59.8686 287.141C57.3738 287.31 66.0844 281.052 66.0844 281.052Z" fill="#3E322C"/>
<path d="M97.0791 191.071L95.6414 193.1C95.6414 193.1 94.9648 194.496 93.3158 196.61C92.8929 197.16 92.3432 197.625 91.7512 198.005C91.0324 198.471 90.0599 199.02 89.4256 199.147C88.6645 199.316 88.4953 200.373 89.1296 200.627C89.8062 200.923 91.9627 200.5 94.0346 198.936C96.1065 197.371 95.134 201.304 94.7957 202.784C94.4574 204.221 93.6963 208.746 94.0346 209.211C94.5843 209.887 95.3877 209.422 95.6837 207.985C95.9797 206.505 97.1636 202.234 97.9248 202.445C98.6859 202.657 96.9099 209.972 96.9099 209.972C96.9099 209.972 96.2757 211.494 97.1636 211.748C98.7282 212.213 99.9967 204.306 100.124 203.545C100.208 203.037 101.012 203.206 100.927 203.756C100.8 204.348 99.0241 211.029 100.589 211.536C101.815 211.917 101.73 205.025 102.872 203.841C104.014 202.657 102.407 209.084 103.591 209.422C104.014 209.549 104.352 209.591 104.775 205.743C105.155 201.853 104.521 191.071 104.521 191.071L97.0791 191.155M71.2011 108.278C71.3702 107.052 70.6936 101.935 70.6936 101.935C70.6936 101.935 66.0001 101.597 65.5772 96.9459C65.1544 92.3369 65.0698 81.639 65.0698 81.639L73.4421 77.1991L83.0407 84.0069L87.2268 86.6708L82.7447 97.4533L82.3641 101.174V107.263L71.2011 108.278V108.278Z" fill="#FCBAA2"/>
<path d="M70.6934 101.935C70.6934 101.935 73.8224 101.851 76.7823 99.6521C76.7823 99.6521 75.5138 103.119 70.8625 103.077L70.6934 101.935V101.935Z" fill="#FF9680"/>
<path d="M89.0027 74.9157C88.4107 74.2814 87.8187 73.774 87.269 73.3934C80.715 68.4885 76.2328 72.9706 71.2856 72.1249C67.184 71.4484 68.8754 68.4462 68.8754 68.4462C61.0528 71.2369 60.6299 79.8207 65.7463 82.5268C69.2559 84.3874 74.3723 84.2605 78.5162 83.0343C78.3893 84.8948 78.3893 87.1358 78.6008 89.2501L80.5036 88.6581C80.7995 85.4445 84.2246 86.0364 84.436 88.5735C84.9011 93.7745 82.3218 93.3094 82.3218 93.3094C82.2372 94.2819 82.5755 95.8887 82.9138 97.2841C83.7172 97.6224 95.8528 82.1886 89.0027 74.9157V74.9157Z" fill="#3E322C"/>
<path d="M101.096 120.456C101.096 120.456 97.9246 105.656 82.3639 107.221L68.1987 108.659C68.1987 108.659 58.4733 112.76 59.8264 124.388C61.1795 136.017 61.856 146.588 61.5178 148.66C61.1795 150.689 57.7545 168.998 58.7693 170.267C69.0021 182.698 95.1338 162.867 95.1338 162.867L101.096 120.456V120.456Z" fill="#A9C8E4"/>
<path d="M104.775 192.593L101.096 120.456C100.039 116.397 97.8822 113.225 95.0915 110.519C93.9075 109.208 90.3556 106.417 82.3639 107.221L85.958 193.565L94.2881 189.083V193.565L104.775 192.593V192.593ZM71.2008 108.278C71.2008 108.278 61.5177 113.056 61.9828 129.293C62.448 145.53 56.1476 191.324 56.1476 191.324L48.0713 189.718C48.0713 189.718 57.4161 146.292 57.839 138.68C58.2618 130.9 57.543 119.948 62.7862 112.38C66.5073 106.883 71.2008 108.278 71.2008 108.278Z" fill="#E25333"/>
<path d="M65.9578 274.413C66.127 274.371 62.6597 261.305 62.6597 261.305L74.1187 257.965L76.5289 270.185L65.9578 274.413ZM79.362 265.787H92.3855V276.02H79.362V265.787Z" fill="#FCBAA2"/>
<path d="M78.0509 281.559L79.2348 275.343H93.3155L91.8356 284.435L91.0745 284.477C87.8608 284.646 72.2156 285.492 70.0591 284.815C67.6489 284.139 78.0509 281.559 78.0509 281.559V281.559Z" fill="#3E322C"/>
<path d="M33.8218 120.075C34.2446 120.075 34.5406 119.737 34.5406 119.357C34.5406 117.919 33.5681 117.242 32.7647 116.693C32.0036 116.185 31.623 115.847 31.623 115.213C31.623 114.578 32.0458 114.282 32.7647 113.733C33.5681 113.183 34.5406 112.464 34.5406 111.069C34.5406 109.631 33.5681 108.955 32.7647 108.405C32.0036 107.898 31.623 107.559 31.623 106.925C31.623 106.502 31.2847 106.206 30.9042 106.206C30.4813 106.206 30.1853 106.544 30.1853 106.925C30.1853 108.363 31.1579 109.039 31.9613 109.589C32.7224 110.096 33.1029 110.435 33.1029 111.069C33.1029 111.703 32.6801 111.999 31.9613 112.549C31.1579 113.099 30.1853 113.817 30.1853 115.213C30.1853 116.608 31.1579 117.327 31.9613 117.877C32.7224 118.384 33.1029 118.722 33.1029 119.357C33.0607 119.779 33.3989 120.075 33.8218 120.075ZM27.5637 122.021C27.9865 122.021 28.2825 121.682 28.2825 121.302C28.2825 119.864 27.31 119.187 26.5066 118.638C25.7455 118.13 25.3649 117.792 25.3649 117.158C25.3649 116.524 25.7878 116.228 26.5066 115.678C27.31 115.128 28.2825 114.409 28.2825 113.014C28.2825 111.576 27.31 110.9 26.5066 110.35C25.7455 109.843 25.3649 109.504 25.3649 108.87C25.3649 108.447 25.0266 108.151 24.6461 108.151C24.2232 108.151 23.9272 108.49 23.9272 108.87C23.9272 110.308 24.8998 110.984 25.7032 111.534C26.4643 112.041 26.8449 112.38 26.8449 113.014C26.8449 113.648 26.422 113.944 25.7032 114.494C24.8998 115.044 23.9272 115.762 23.9272 117.158C23.9272 118.595 24.8998 119.272 25.7032 119.822C26.4643 120.329 26.8449 120.667 26.8449 121.302C26.8449 121.682 27.1409 122.021 27.5637 122.021Z" fill="#CAC4C4"/>
</svg>
